<svg version="1.1" xmlns="http://www.w3.org/2000/svg" x="0px" y="0px"
	 viewBox="0 0 929.36 241.78" width="929.36" height="241.78" style="enable-background:new 0 0 929.36 241.78;" xml:space="preserve">
<g>
	<g>
		<path fill="#00B5F0" d="M189.55,123.69c-20.17-19.64-43.29-34.74-43.29-34.74S96.12,57.33,96.12,37.23
			c0-23.72,63.24-29.14,63.24-29.14s-14.68-6.32-45.85-6.32c-35.69,0-89.22,27.56-89.22,62.11c0,21.25,15.27,40.73,29.39,54.2
			c20.17,19.64,43.29,34.74,43.29,34.74s50.14,31.62,50.14,51.72c0,23.72-63.24,29.14-63.24,29.14s14.68,6.32,45.85,6.32
			c35.69,0,89.22-27.56,89.22-62.11C218.94,156.64,203.68,137.17,189.55,123.69z"/>
		<path fill="#00D9AA" d="M54.96,149.21l2.26,21.23c0,0-40.66-16.26-55.11-56.02c0,0-2.71,87.64,60.53,97.12L64.45,226l39.75-30.27
			L54.96,149.21z"/>
		<path fill="#FF5280" d="M186.4,93.64l-2.26-21.23c0,0,40.66,16.26,55.11,56.02c0,0,2.71-87.64-60.53-97.12l-1.81-14.46l-39.75,30.27
			L186.4,93.64z"/>
	</g>
	<g>
		<path fill="#FF5280" d="M471.55,68.5c0,2.17-0.66,3.89-1.98,5.16c-1.32,1.27-2.92,1.91-4.8,1.91c-1.89,0-3.49-0.64-4.8-1.91
			c-1.32-1.27-1.98-2.99-1.98-5.16c0-2.17,0.66-3.89,1.98-5.16c1.32-1.27,2.92-1.91,4.8-1.91c1.88,0,3.48,0.64,4.8,1.91
			C470.89,64.61,471.55,66.33,471.55,68.5z"/>
		<path fill="#00D9AA" d="M673.01,68.08c0,3.2-1.04,5.75-3.11,7.63c-2.08,1.89-4.52,2.83-7.35,2.83c-2.92,0-5.42-0.94-7.49-2.83
			c-2.07-1.88-3.11-4.43-3.11-7.63c0-3.3,1.04-5.89,3.11-7.77c2.07-1.88,4.57-2.83,7.49-2.83c2.83,0,5.27,0.94,7.35,2.83
			C671.97,62.19,673.01,64.78,673.01,68.08z"/>
		<g>
			<path fill="#ffffff" d="M324.95,130.6c-1.98-1.65-4.26-3.06-6.85-4.23c-2.59-1.17-5.3-2.32-8.12-3.45c-2.73-1.13-5.16-2.16-7.28-3.1
				c-2.12-0.94-3.91-1.95-5.37-3.03c-1.46-1.09-2.57-2.34-3.32-3.75c-0.76-1.42-1.13-3.12-1.13-5.1c0-1.98,0.42-3.66,1.27-5.03
				c0.85-1.37,1.98-2.5,3.39-3.4c1.41-0.9,3.04-1.56,4.87-1.98c1.84-0.42,3.79-0.64,5.86-0.64c5.18,0,9.11,0.47,11.8,1.41
				c2.68,0.94,4.59,1.7,5.72,2.26l2.12-8.2c-1.32-0.66-3.6-1.41-6.85-2.26c-3.25-0.85-7.37-1.27-12.36-1.27
				c-7.82,0-13.97,1.84-18.44,5.51c-4.48,3.67-6.71,8.48-6.71,14.41c0,3.11,0.56,5.75,1.7,7.91c1.13,2.17,2.64,4.03,4.52,5.58
				c1.88,1.55,4.05,2.92,6.5,4.1c2.45,1.18,5.04,2.33,7.77,3.46c3.39,1.41,6.24,2.64,8.55,3.67c2.31,1.04,4.17,2.12,5.58,3.25
				c1.41,1.13,2.42,2.4,3.04,3.82c0.61,1.41,0.92,3.11,0.92,5.09c0,4.15-1.72,7.09-5.16,8.83c-3.44,1.74-7.8,2.61-13.07,2.61
				c-2.92,0-5.49-0.19-7.7-0.56c-2.21-0.37-4.12-0.82-5.72-1.34c-1.6-0.52-2.87-0.99-3.81-1.41c-0.94-0.42-1.55-0.73-1.84-0.92
				l-2.4,8.34c1.13,0.56,3.39,1.39,6.78,2.47s8.29,1.63,14.69,1.63c8.57,0,15.33-1.7,20.28-5.09c4.95-3.39,7.42-8.38,7.42-14.98
				c0-3.48-0.61-6.38-1.84-8.69C328.53,134.23,326.93,132.25,324.95,130.6z"/>
			<path fill="#ffffff" d="M430.69,106.75c-1.56,5.8-3.23,11.55-5.03,17.24c-1.8,5.69-3.59,11.11-5.39,16.23c-1.8,5.13-3.5,9.48-5.1,13.06
				c-1.89-4.71-3.76-9.75-5.6-15.13c-1.84-5.37-3.58-10.81-5.22-16.32c-1.64-5.51-3.14-10.92-4.5-16.24
				c-1.36-5.32-2.46-10.33-3.31-15.04h-7.91c-1.12,4.7-2.38,9.72-3.78,15.04c-1.4,5.33-2.9,10.72-4.5,16.19
				c-1.59,5.47-3.3,10.89-5.11,16.27c-1.81,5.38-3.62,10.41-5.42,15.1c-1.61-3.58-3.33-7.92-5.17-13.01
				c-1.84-5.09-3.66-10.48-5.46-16.18c-1.8-5.7-3.48-11.44-5.04-17.23c-1.56-5.79-2.86-11.18-3.9-16.17h-9.75
				c3.38,14.32,7.07,27.42,11.07,39.29c4,11.87,8.42,23.12,13.25,33.76h8.83c1.41-3.28,2.89-6.97,4.45-11.06
				c1.56-4.1,3.16-8.48,4.82-13.14c1.65-4.66,3.25-9.56,4.8-14.7c1.55-5.14,3.02-10.4,4.43-15.78c1.41,5.36,2.89,10.61,4.45,15.74
				c1.55,5.13,3.16,10.02,4.82,14.68c1.66,4.66,3.28,9.04,4.84,13.13c1.57,4.09,3.06,7.8,4.49,11.13h8.52
				c4.82-10.63,9.24-21.88,13.26-33.74c4.02-11.86,7.73-24.96,11.13-39.31h-9.05C433.55,95.54,432.25,100.94,430.69,106.75z"/>
			<path fill="#ffffff" d="M546.23,99.3c-3.16-3.3-6.92-5.81-11.3-7.56c-4.38-1.74-9.26-2.61-14.62-2.61c-6.5,0-11.87,0.42-16.11,1.27
				c-4.24,0.85-7.73,1.74-10.46,2.68v96.65h9.18v-30.38c1.6,1.22,4.17,2.52,7.7,3.89c3.53,1.36,7.7,2.05,12.5,2.05
				c5.27,0,9.96-0.94,14.06-2.83c4.1-1.88,7.56-4.5,10.39-7.84c2.83-3.34,4.97-7.35,6.43-12.01c1.46-4.66,2.19-9.77,2.19-15.33
				c0-5.93-0.87-11.26-2.61-15.97C551.83,106.6,549.38,102.6,546.23,99.3z M545.17,138.79c-0.85,3.63-2.21,6.78-4.1,9.47
				c-1.89,2.68-4.36,4.8-7.42,6.36c-3.06,1.55-6.85,2.33-11.37,2.33c-2.17,0-4.24-0.21-6.22-0.64c-1.98-0.42-3.81-0.96-5.51-1.63
				c-1.7-0.66-3.18-1.36-4.45-2.12c-1.27-0.75-2.33-1.46-3.18-2.12V99.44c1.41-0.47,3.51-0.92,6.29-1.34
				c2.78-0.42,6.43-0.64,10.95-0.64c7.91,0,14.27,2.57,19.07,7.7c4.8,5.14,7.21,12.51,7.21,22.11
				C546.44,131.33,546.02,135.17,545.17,138.79z"/>
			<path fill="#ffffff" d="M604.12,88.85c-4.05,0-7.98,0.78-11.8,2.33c-3.81,1.55-7.21,3.93-10.17,7.14c-2.97,3.2-5.37,7.18-7.21,11.94
				c-1.84,4.76-2.75,10.34-2.75,16.74c0,5.56,0.66,10.67,1.98,15.33c1.32,4.66,3.44,8.69,6.36,12.08c2.92,3.39,6.64,6.03,11.16,7.91
				c4.52,1.88,9.98,2.83,16.39,2.83c4.9,0,9.16-0.52,12.79-1.55s6.1-1.93,7.42-2.68l-1.7-7.91c-1.32,0.66-3.44,1.46-6.36,2.4
				c-2.92,0.94-6.88,1.41-11.87,1.41c-9.04,0-15.64-2.4-19.78-7.21c-4.15-4.8-6.36-11.68-6.64-20.63h51.29
				c0.09-0.66,0.16-1.36,0.21-2.12c0.05-0.75,0.07-1.51,0.07-2.26c0-12.15-2.66-21.15-7.98-26.99
				C620.2,91.77,613.07,88.85,604.12,88.85z M582.22,121.2c0.19-3.2,0.82-6.26,1.91-9.18c1.08-2.92,2.59-5.49,4.52-7.7
				c1.93-2.21,4.19-3.98,6.78-5.3c2.59-1.32,5.53-1.98,8.83-1.98c6.22,0,11.02,2.12,14.41,6.36c3.39,4.24,5.18,10.17,5.37,17.8
				H582.22z"/>
			<path fill="#ffffff" d="M749.88,98.45c-3.11-3.39-6.85-6.01-11.23-7.84c-4.38-1.84-9.16-2.76-14.34-2.76c-5.18,0-9.94,0.92-14.27,2.76
				c-4.33,1.84-8.08,4.45-11.23,7.84c-3.16,3.39-5.6,7.47-7.35,12.22c-1.74,4.76-2.61,10.06-2.61,15.9c0,5.84,0.87,11.16,2.61,15.97
				c1.74,4.8,4.17,8.9,7.28,12.29c3.11,3.39,6.83,6.03,11.16,7.91c4.33,1.88,9.14,2.83,14.41,2.83c5.27,0,10.1-0.94,14.48-2.83
				c4.38-1.88,8.13-4.52,11.23-7.91c3.11-3.39,5.51-7.49,7.21-12.29c1.7-4.8,2.54-10.13,2.54-15.97c0-5.84-0.87-11.14-2.61-15.9
				C755.41,105.92,752.98,101.85,749.88,98.45z M737.51,144.24c-3.16,4.33-7.56,6.5-13.21,6.5c-5.65,0-10.06-2.17-13.21-6.5
				c-3.16-4.33-4.73-10.22-4.73-17.66c0-7.35,1.57-13.16,4.73-17.45c3.15-4.29,7.56-6.43,13.21-6.43c5.65,0,10.05,2.14,13.21,6.43
				c3.15,4.29,4.73,10.1,4.73,17.45C742.24,134.01,740.67,139.9,737.51,144.24z"/>
			<path fill="#ffffff" d="M836.4,98.74c-2.73-3.39-6.15-6.01-10.24-7.84c-4.1-1.84-8.74-2.75-13.92-2.75c-3.49,0-6.67,0.42-9.54,1.27
				c-2.87,0.85-5.3,1.79-7.28,2.83V53.95l-17.1,2.83v104.56c3.39,1.04,7.65,1.98,12.79,2.83c5.13,0.85,10.53,1.27,16.18,1.27
				c5.84,0,11.07-0.9,15.68-2.68c4.61-1.79,8.55-4.38,11.8-7.77s5.74-7.46,7.49-12.22c1.74-4.76,2.62-10.1,2.62-16.04
				c0-5.75-0.73-11-2.19-15.76C841.23,106.2,839.14,102.13,836.4,98.74z M821.99,144.16c-3.58,4.29-8.53,6.43-14.84,6.43
				c-2.73,0-5.06-0.12-6.99-0.35c-1.93-0.23-3.51-0.49-4.73-0.78v-42.53c1.51-1.04,3.51-1.98,6.01-2.83
				c2.49-0.85,5.16-1.27,7.98-1.27c6.22,0,10.76,2.12,13.64,6.36c2.87,4.24,4.31,9.99,4.31,17.24
				C827.36,133.97,825.57,139.88,821.99,144.16z"/>
			<path fill="#ffffff" d="M906.3,129.19c-1.84-1.84-4.17-3.48-6.99-4.95c-2.83-1.46-6.27-2.94-10.31-4.45c-2.45-0.85-4.52-1.67-6.22-2.47
				c-1.7-0.8-3.06-1.6-4.1-2.4c-1.04-0.8-1.76-1.67-2.19-2.61c-0.42-0.94-0.64-2.02-0.64-3.25c0-2.45,1.08-4.26,3.25-5.44
				c2.17-1.18,4.99-1.77,8.48-1.77c3.86,0,7.25,0.35,10.17,1.06c2.92,0.71,5.32,1.48,7.2,2.33l3.11-13.85
				c-1.98-0.75-4.95-1.53-8.9-2.33c-3.96-0.8-8.1-1.2-12.43-1.2c-8.57,0-15.36,1.96-20.35,5.86c-4.99,3.91-7.49,9.26-7.49,16.04
				c0,3.49,0.54,6.43,1.62,8.83c1.08,2.4,2.57,4.45,4.45,6.15s4.12,3.18,6.71,4.45c2.59,1.27,5.44,2.47,8.55,3.6
				c5.09,1.89,8.73,3.63,10.95,5.23c2.21,1.6,3.32,3.63,3.32,6.08c0,2.64-1.04,4.5-3.11,5.58c-2.07,1.08-5.37,1.63-9.89,1.63
				c-4.52,0-8.55-0.47-12.08-1.41c-3.53-0.94-6.57-1.93-9.11-2.97l-2.97,14.27c1.6,0.66,4.38,1.53,8.34,2.61s9.18,1.63,15.68,1.63
				c9.7,0,17.17-1.82,22.4-5.44c5.23-3.62,7.84-8.97,7.84-16.04c0-3.3-0.42-6.12-1.27-8.48
				C909.48,133.12,908.14,131.02,906.3,129.19z"/>
			<rect fill="#ffffff" x="460.25" y="90.54" width="9.18" height="73.05"/>
			<path fill="#ffffff" d="M654.07,161.33c0,4.61-0.8,8.08-2.4,10.38c-1.6,2.31-4.38,3.46-8.34,3.46c-2.92,0-5.42-0.33-7.49-0.99l-2.26,13.99
				c1.7,0.66,3.65,1.11,5.86,1.34c2.21,0.23,3.93,0.35,5.16,0.35c8.57,0,15.14-2.31,19.71-6.92c4.57-4.62,6.85-11.73,6.85-21.34
				V89.69h-17.1V161.33z"/>
			<path fill="#ffffff" d="M916.1,67.24c0.52-0.73,0.78-1.63,0.78-2.71c0-1.58-0.51-2.79-1.52-3.63c-1.01-0.84-2.45-1.25-4.31-1.25h-5.68v16.15
				h2.81v-6.21h3.13l3.24,6.21h3.01v-0.14l-3.63-6.73C914.86,68.53,915.58,67.97,916.1,67.24z M911.06,67.32h-2.88V61.9h2.96
				c0.98,0.02,1.71,0.26,2.2,0.73c0.49,0.47,0.74,1.14,0.74,2.01c0,0.83-0.26,1.48-0.8,1.96S912.01,67.32,911.06,67.32z"/>
			<path fill="#ffffff" d="M911.46,51.9c-8.72,0-15.81,7.09-15.81,15.81s7.09,15.81,15.81,15.81s15.81-7.09,15.81-15.81S920.18,51.9,911.46,51.9z
				 M911.46,81.13c-7.4,0-13.41-6.02-13.41-13.41c0-7.39,6.02-13.41,13.41-13.41c7.39,0,13.41,6.02,13.41,13.41
				C924.87,75.11,918.86,81.13,911.46,81.13z"/>
		</g>
	</g>
</g>
</svg>
